<svg id="Layer_1" data-name="Layer 1" xmlns="http://www.w3.org/2000/svg" viewBox="0 0 256 256"><defs><style>.cls-1{fill:#333;}</style></defs><path id="grip-horizontal-solid" class="cls-1" d="M8.21,51.09v68.37H76.57V51.09Zm85.45,0v68.37H162V51.09Zm85.46,0v68.37h68.35V51.09ZM25.3,68.19H59.48v34.17H25.3Zm85.45,0h34.18v34.17H110.75Zm85.45,0h34.18v34.17H196.2Zm-188,68.35v68.37H76.57V136.54Zm85.45,0v68.37H162V136.54Zm85.45,0v68.37h68.36V136.54ZM25.3,153.64H59.48v34.17H25.3Zm85.45,0h34.18v34.17H110.75Zm85.45,0h34.18v34.17H196.2Z"/></svg>