<svg id="Layer_1" data-name="Layer 1" xmlns="http://www.w3.org/2000/svg" viewBox="0 0 256 256"><defs><style>.cls-1{fill:#fff;}</style></defs><path id="grip-horizontal-solid" class="cls-1" d="M10,47.12v68.37H78.37V47.12Zm85.45,0v68.37h68.36V47.12Zm85.46,0v68.37h68.35V47.12ZM27.1,64.22H61.28V98.4H27.1Zm85.45,0h34.18V98.4H112.55Zm85.45,0h34.18V98.4H198ZM10,132.57v68.37H78.37V132.57Zm85.45,0v68.37h68.36V132.57Zm85.45,0v68.37h68.36V132.57ZM27.1,149.67H61.28v34.18H27.1Zm85.45,0h34.18v34.18H112.55Zm85.45,0h34.18v34.18H198Z"/></svg>