<svg id="Layer_1" data-name="Layer 1" xmlns="http://www.w3.org/2000/svg" viewBox="0 0 256 256"><defs><style>.cls-1{fill:#f1b640;}</style></defs><path id="sliders-h-solid" class="cls-1" d="M117.59,13.41a31.35,31.35,0,0,0-29.3,20.84H3V55.08H88.29a31,31,0,0,0,58.59,0H253V34.25H146.88A31.35,31.35,0,0,0,117.59,13.41Zm0,20.84a10.41,10.41,0,1,1-10.43,10.41,10.28,10.28,0,0,1,10.15-10.41Zm72.91,62.5a31.36,31.36,0,0,0-29.3,20.83H3v20.83H161.2a31,31,0,0,0,58.6,0H253V117.57H219.8A31.37,31.37,0,0,0,190.5,96.75Zm0,20.83A10.42,10.42,0,1,1,180.09,128a10.28,10.28,0,0,1,10.13-10.43h.28ZM75.91,180.08a31.34,31.34,0,0,0-29.29,20.83H3v20.84H46.62a31,31,0,0,0,58.59,0H253V200.91H105.21a31.37,31.37,0,0,0-29.3-20.84Zm0,20.84A10.42,10.42,0,1,1,65.5,211.33h0a10.28,10.28,0,0,1,10.15-10.41h.26Z"/></svg>