<svg width="30" height="24" viewBox="0 0 30 24" fill="none" xmlns="http://www.w3.org/2000/svg">
<path d="M27.9197 17.0781H8.62506L9.59385 15.2827L25.6905 15.2562C26.2348 15.2562 26.7014 14.9024 26.7986 14.4131L29.0278 3.06017C29.0861 2.76242 28.9986 2.45582 28.7848 2.22293C28.6791 2.10831 28.5473 2.01598 28.3984 1.95235C28.2496 1.88871 28.0874 1.8553 27.9229 1.85442L7.44568 1.79251L7.27072 1.04371C7.16055 0.56613 6.6875 0.218262 6.14965 0.218262H1.14374C0.840405 0.218262 0.549489 0.327902 0.334995 0.523063C0.120501 0.718224 0 0.982919 0 1.25892C0 1.53492 0.120501 1.79961 0.334995 1.99477C0.549489 2.18994 0.840405 2.29958 1.14374 2.29958H5.22299L5.98765 5.60727L7.87013 13.9001L5.44656 17.4997C5.3207 17.6542 5.24489 17.8377 5.22771 18.0295C5.21053 18.2212 5.25267 18.4135 5.34936 18.5845C5.54376 18.9353 5.93581 19.1565 6.36998 19.1565H8.40474C7.97096 19.6807 7.73665 20.3192 7.73729 20.9754C7.73729 22.644 9.22772 24.0001 11.0616 24.0001C12.8955 24.0001 14.3859 22.644 14.3859 20.9754C14.3859 20.318 14.1461 19.6783 13.7185 19.1565H18.9382C18.5044 19.6807 18.2701 20.3192 18.2708 20.9754C18.2708 22.644 19.7612 24.0001 21.5951 24.0001C23.4289 24.0001 24.9194 22.644 24.9194 20.9754C24.9194 20.318 24.6796 19.6783 24.2519 19.1565H27.9229C28.5515 19.1565 29.0667 18.6907 29.0667 18.1158C29.0648 17.8401 28.9431 17.5762 28.7283 17.3818C28.5134 17.1874 28.2227 17.0782 27.9197 17.0781ZM7.92197 3.84435L26.5783 3.90036L24.7509 13.2103L10.0961 13.2338L7.92197 3.84435ZM11.0616 21.907C10.4978 21.907 10.0377 21.4883 10.0377 20.9754C10.0377 20.4624 10.4978 20.0438 11.0616 20.0438C11.6254 20.0438 12.0855 20.4624 12.0855 20.9754C12.0855 21.2225 11.9776 21.4594 11.7856 21.6341C11.5936 21.8088 11.3331 21.907 11.0616 21.907ZM21.5951 21.907C21.0313 21.907 20.5712 21.4883 20.5712 20.9754C20.5712 20.4624 21.0313 20.0438 21.5951 20.0438C22.1588 20.0438 22.6189 20.4624 22.6189 20.9754C22.6189 21.2225 22.5111 21.4594 22.319 21.6341C22.127 21.8088 21.8666 21.907 21.5951 21.907Z" fill="black"/>
</svg>
