<svg id="Layer_1" data-name="Layer 1" xmlns="http://www.w3.org/2000/svg" viewBox="0 0 256 256"><defs><style>.cls-1{fill:#f1b640;}</style></defs><g id="cart_icon" data-name="cart icon"><path id="shopping-cart-solid" class="cls-1" d="M13.52,22.74a10.53,10.53,0,0,0,0,21.05H36.88L64.51,154.32A20.89,20.89,0,0,0,84.9,170.11H205.63a20.72,20.72,0,0,0,20.07-15.46L253,54.31H76.68l5.26,21.06H225.7l-20.07,73.68H84.9L57.27,38.52A20.87,20.87,0,0,0,36.88,22.74Zm179,147.37a31.58,31.58,0,1,0,31.58,31.58A31.58,31.58,0,0,0,192.47,170.11Zm-94.74,0a31.58,31.58,0,1,0,31.58,31.58A31.58,31.58,0,0,0,97.73,170.11Zm0,21a10.53,10.53,0,1,1-10.52,10.53h0a10.39,10.39,0,0,1,10.26-10.53Zm94.74,0A10.53,10.53,0,1,1,182,201.69h0a10.39,10.39,0,0,1,10.26-10.53Z"/></g></svg>