<svg id="Layer_1" data-name="Layer 1" xmlns="http://www.w3.org/2000/svg" viewBox="0 0 256 256"><defs><style>.cls-1{fill:#b7561f;}</style></defs><path class="cls-1" d="M70,20.44C33,20.44,3,50.82,3,87.4c0,12.77,5.79,23.82,11.16,31.81A82.24,82.24,0,0,0,25,132.32l96.54,96.82,6.42,6.42,6.42-6.42L231,132.32s22-19.42,22-44.92c0-36.58-30-67-67-67-30.66,0-50.4,18.45-58,26.23C120.36,38.89,100.62,20.44,70,20.44ZM70,38.3c26.69,0,51.34,25.94,51.34,25.94l6.7,7.54,6.7-7.54S159.35,38.3,186,38.3a49.26,49.26,0,0,1,49.1,49.1c0,13.78-16.74,32.37-16.74,32.37L128,210.17l-90.4-90.4A70.24,70.24,0,0,1,29,109.17c-4.33-6.46-8.09-14.86-8.09-21.77A49.26,49.26,0,0,1,70,38.3Z"/></svg>