<svg id="Layer_1" data-name="Layer 1" xmlns="http://www.w3.org/2000/svg" viewBox="0 0 256 256"><defs><style>.cls-1{fill:#fff;}</style></defs><path id="heart" class="cls-1" d="M73.19,35A63.5,63.5,0,0,0,9.94,98.21a54.86,54.86,0,0,0,10.54,30,78.67,78.67,0,0,0,10.28,12.39l91.18,91.43,6.06,6.06,6.06-6.06,91.18-91.43s20.82-18.35,20.82-42.43A63.5,63.5,0,0,0,182.82,35,76.89,76.89,0,0,0,128,59.73,76.86,76.86,0,0,0,73.19,35Zm0,16.86c25.21,0,48.49,24.51,48.49,24.51L128,83.44l6.32-7.11s23.29-24.51,48.49-24.51a46.57,46.57,0,0,1,46.39,46.39c0,13-15.82,30.57-15.82,30.57L128,214.15,42.62,128.78a67.64,67.64,0,0,1-8.17-10,41,41,0,0,1-7.62-20.56A46.56,46.56,0,0,1,73.19,51.82Z"/></svg>