<svg id="Layer_1" data-name="Layer 1" xmlns="http://www.w3.org/2000/svg" viewBox="0 0 256 256"><defs><style>.cls-1{fill:#f1b640;}</style></defs><path id="map-marker-solid" class="cls-1" d="M128,11.72a79.18,79.18,0,0,0-79,79,111.44,111.44,0,0,0,11.8,42A485.73,485.73,0,0,0,85.21,180c17.77,30.64,35.68,56.26,35.68,56.26L128,246.64l7.13-10.43S153,210.59,170.79,180a485.73,485.73,0,0,0,24.47-47.2,111.44,111.44,0,0,0,11.8-42A79.19,79.19,0,0,0,128,11.72Zm0,17.56a61.34,61.34,0,0,1,61.47,61.2v.27a106,106,0,0,1-10.16,34.86,482.2,482.2,0,0,1-23.87,45.55C141.63,195,133.06,207.55,128,215.07c-5.08-7.52-13.65-20.1-27.4-43.91a484.63,484.63,0,0,1-23.88-45.55A106.22,106.22,0,0,1,66.58,90.75a61.35,61.35,0,0,1,61.2-61.47Zm0,43.91a17.56,17.56,0,1,0,17.56,17.56h0A17.56,17.56,0,0,0,128,73.19Z"/></svg>