<svg id="Layer_1" data-name="Layer 1" xmlns="http://www.w3.org/2000/svg" viewBox="0 0 256 256"><defs><style>.cls-1{fill:#f1b640;}</style></defs><path id="bell" class="cls-1" d="M128,11.72a18.07,18.07,0,0,0-18.07,18v0a17,17,0,0,0,.28,2.26,72.5,72.5,0,0,0-54.49,70V183.4a8.87,8.87,0,0,1-8.71,9H37.65V210.5h64.94a26.57,26.57,0,0,0-1.69,9,27.1,27.1,0,1,0,54.2,0h0a26.57,26.57,0,0,0-1.69-9h64.94V192.43h-9a8.87,8.87,0,0,1-9-8.72,1.61,1.61,0,0,1,0-.31V104.61a74.9,74.9,0,0,0-54.5-72.56,15.52,15.52,0,0,0,.29-2.26A18.07,18.07,0,0,0,128,11.72Zm-3.92,36.14c1.31-.11,2.62,0,3.92,0h1.65a55.86,55.86,0,0,1,52.52,56.77v78.78a26.57,26.57,0,0,0,1.69,9H72.09a26.57,26.57,0,0,0,1.69-9V102.08a54.27,54.27,0,0,1,50.27-54.22ZM128,210.49a9,9,0,1,1-9,9,8.91,8.91,0,0,1,8.8-9H128Z"/></svg>