<svg id="Layer_1" data-name="Layer 1" xmlns="http://www.w3.org/2000/svg" viewBox="0 0 256 256"><defs><style>.cls-1{fill:#333;}</style></defs><path id="pen-solid" class="cls-1" d="M209.06,5.47a41.33,41.33,0,0,0-29.3,12.25L20.38,177.14l-.63,3.14-11,55.44-3.15,14.8,14.81-3.14,55.44-11,3.14-.63L238.35,76.34A41.58,41.58,0,0,0,209.06,5.47Zm0,19.22a21.44,21.44,0,0,1,15.12,7.25,19.22,19.22,0,0,1,0,30.23l-7.25,6.93L187,39.18l6.93-7.25a21.44,21.44,0,0,1,15.13-7.25ZM172.84,53.35l29.93,29.93L80.86,205.17a68.64,68.64,0,0,0-29.93-29.88ZM38.06,191.62a47.73,47.73,0,0,1,26.45,26.46L31.44,224.7Z"/></svg>