<svg viewBox="0 0 144 40" fill="none" xmlns="http://www.w3.org/2000/svg">
<path d="M34.3863 14.4796C32.5362 15.9161 31.3383 17.6718 31.6111 20.0403C31.884 22.3642 33.3814 23.89 35.4843 25.0136C34.2731 26.7757 33.1018 28.5314 31.8707 30.2487C31.2451 31.1297 30.3534 31.6724 29.1954 31.7043C28.4966 31.7235 27.8378 31.5383 27.2056 31.2702C26.4469 30.951 25.6616 30.7531 24.8297 30.7212C23.8115 30.6828 22.8665 30.9446 21.9282 31.3085C21.4224 31.5064 20.8767 31.6596 20.3376 31.7171C19.4459 31.8192 18.6739 31.4809 18.0616 30.868C16.0518 28.8506 14.4613 26.5778 13.6694 23.8645C12.944 21.381 12.9307 18.8848 13.696 16.4077C14.834 12.7048 19.0932 11.2365 22.201 12.5644C23.5919 13.1581 25.0028 13.107 26.4003 12.5516C27.9509 11.9323 29.5414 11.7344 31.1719 12.2132C32.3698 12.5644 33.3547 13.2347 34.16 14.1477C34.2532 14.2434 34.3064 14.3583 34.3863 14.4796Z" fill="white"/>
<path d="M73.1248 35.4967C72.2996 35.4967 71.521 35.4967 70.6758 35.4967C70.6758 30.3638 70.6758 25.2309 70.6758 20.0852C71.3413 20.0852 72.0534 20.0852 72.812 20.0852C72.8453 20.5385 72.8786 20.9981 72.9185 21.5089C73.0583 21.362 73.1647 21.2535 73.2646 21.1513C74.895 19.4212 78.6418 19.1403 80.5451 21.7195C82.1223 23.8583 82.0424 27.4973 80.3654 29.5594C78.9279 31.3278 76.2859 31.9215 74.2628 30.9064C73.8702 30.7085 73.5241 30.4212 73.1181 30.1531C73.1248 31.9279 73.1248 33.7155 73.1248 35.4967ZM73.0782 25.7288C73.0982 25.7288 73.1115 25.7288 73.1315 25.7352C73.1315 26.0417 73.1248 26.3545 73.1315 26.6609C73.1514 27.9697 74.0432 29.0805 75.3143 29.387C76.6719 29.7126 78.0095 29.1955 78.6351 27.9888C79.4603 26.3992 79.447 24.7712 78.6085 23.1751C78.329 22.6389 77.8831 22.2367 77.2975 21.9941C75.6337 21.2982 73.6506 22.2622 73.2579 23.9923C73.1381 24.5541 73.1381 25.1479 73.0782 25.7288Z" fill="white"/>
<path d="M60.7597 30.1339C60.7597 31.9215 60.7597 33.6899 60.7597 35.4839C59.9412 35.4839 59.1493 35.4839 58.2908 35.4839C58.2908 30.3573 58.2908 25.2308 58.2908 20.0851C58.9696 20.0851 59.6883 20.0851 60.4337 20.0851C60.4669 20.5448 60.5002 20.998 60.5401 21.5024C60.7265 21.3109 60.8729 21.1577 61.0259 21.0108C62.7363 19.3828 66.503 19.1658 68.3331 21.9557C69.7306 24.088 69.5908 27.5227 68.007 29.5274C66.5229 31.4044 63.6214 31.9598 61.5916 30.7404C61.3055 30.5808 61.0526 30.3573 60.7597 30.1339ZM60.7198 25.716C60.7331 25.716 60.7398 25.716 60.7531 25.716C60.7531 26.0161 60.7531 26.3097 60.7531 26.6098C60.7531 27.976 61.6582 29.0933 63.0158 29.3997C64.3667 29.7062 65.6844 29.1124 66.3166 27.8866C66.8956 26.7566 66.9555 25.5564 66.6893 24.337C66.5096 23.5134 66.1369 22.7793 65.4182 22.2685C63.7145 21.0619 61.2123 22.0898 60.8396 24.1582C60.7398 24.6754 60.7531 25.1989 60.7198 25.716Z" fill="white"/>
<path d="M57.3658 31.1426C56.5339 31.1426 55.762 31.1553 54.9833 31.1298C54.8835 31.1298 54.7438 30.9702 54.7038 30.8553C54.2047 29.4827 53.7122 28.1037 53.2331 26.7183C53.1665 26.5267 53.08 26.4501 52.8671 26.4565C51.3231 26.4629 49.7858 26.4693 48.2419 26.4565C48.0156 26.4565 47.9091 26.5267 47.8426 26.731C47.3767 28.1037 46.8976 29.4763 46.4317 30.8489C46.3585 31.0596 46.2654 31.1553 46.0191 31.1489C45.3004 31.1298 44.5883 31.1426 43.823 31.1426C44.1358 30.2488 44.4286 29.406 44.7281 28.5633C46.1855 24.4455 47.6496 20.334 49.0937 16.2162C49.1869 15.9544 49.3 15.8459 49.5995 15.8587C50.265 15.8842 50.9305 15.8778 51.596 15.8587C51.8489 15.8523 51.962 15.9225 52.0418 16.1587C53.0268 18.9486 54.0184 21.7322 55.0099 24.5221C55.7553 26.6161 56.5007 28.7038 57.2394 30.7978C57.2859 30.8936 57.3192 30.9957 57.3658 31.1426ZM52.5609 24.5476C51.8688 22.543 51.1834 20.5639 50.5312 18.6741C49.8856 20.5575 49.2135 22.543 48.528 24.5476C49.879 24.5476 51.21 24.5476 52.5609 24.5476Z" fill="white"/>
<path d="M86.5012 30.3061C86.7208 29.6421 86.9338 28.9973 87.1468 28.3525C87.6126 28.5696 88.0385 28.8058 88.4844 28.9654C89.6291 29.374 90.807 29.5464 92.0049 29.2463C92.9499 29.0101 93.642 28.4802 93.8284 27.5098C94.028 26.4883 93.682 25.6456 92.7636 25.0902C92.2578 24.7901 91.7054 24.5667 91.1597 24.3241C90.5408 24.0431 89.8886 23.8133 89.2897 23.5005C88.318 22.9897 87.5128 22.2939 87.1068 21.266C86.3215 19.2613 87.2998 17.0269 89.3895 16.165C91.3727 15.3478 93.3692 15.4755 95.3324 16.2544C95.4655 16.3054 95.5786 16.3884 95.7251 16.465C95.4988 17.1099 95.2725 17.7419 95.0662 18.3484C94.5205 18.1569 94.0081 17.927 93.4757 17.7866C92.6305 17.5695 91.7653 17.5184 90.9135 17.7547C90.0616 17.9909 89.456 18.4952 89.3163 19.3699C89.1765 20.2318 89.5159 20.9404 90.2813 21.3873C90.8736 21.7384 91.5257 21.9874 92.1447 22.2939C92.93 22.6769 93.7618 23.0089 94.4939 23.4686C97.289 25.2242 96.8032 29.5911 93.6554 30.836C91.3194 31.7617 89.0168 31.5319 86.7807 30.4785C86.6942 30.4338 86.6144 30.3763 86.5012 30.3061Z" fill="white"/>
<path d="M115.044 25.5305C115.031 27.1394 114.632 28.6269 113.401 29.7824C111.697 31.3785 109.641 31.7871 107.411 31.0848C105.208 30.3953 104.124 28.761 103.824 26.6286C103.598 25.007 103.857 23.4556 104.842 22.0894C106.06 20.3976 107.817 19.7336 109.907 19.8422C112.921 20.0082 114.911 22.1724 115.044 25.1539C115.051 25.2752 115.044 25.4028 115.044 25.5305ZM112.549 25.7029C112.542 24.6878 112.356 23.8387 111.883 23.0662C110.798 21.3042 108.336 21.1765 107.058 22.8172C105.9 24.3048 105.934 27.0117 107.118 28.4609C108.216 29.8016 110.126 29.9165 111.371 28.7035C112.263 27.8352 112.522 26.7372 112.549 25.7029Z" fill="white"/>
<path d="M124.747 26.1245C124.781 28.1164 126.105 29.4124 128.128 29.4443C128.7 29.4507 129.279 29.4188 129.845 29.3294C130.411 29.24 130.956 29.0612 131.549 28.908C131.695 29.4443 131.848 30.0125 132.001 30.5935C131.216 30.9637 130.404 31.168 129.565 31.2702C128.361 31.417 127.15 31.4553 125.978 31.0723C123.955 30.4147 122.811 29.0166 122.465 27.0374C122.145 25.1988 122.405 23.4303 123.549 21.8598C125.14 19.6828 128.547 19.1082 130.657 20.6596C131.722 21.4385 132.254 22.5302 132.447 23.7623C132.554 24.4263 132.507 25.1158 132.54 25.7925C132.554 26.099 132.407 26.1756 132.101 26.1692C129.732 26.1436 127.356 26.1373 124.987 26.1245C124.927 26.1245 124.847 26.1245 124.747 26.1245ZM124.807 24.3241C126.611 24.3241 128.408 24.3241 130.238 24.3241C130.211 24.1198 130.198 23.9411 130.164 23.7687C129.885 22.1599 128.594 21.298 126.997 21.6555C125.865 21.9045 124.927 23.0473 124.807 24.3241Z" fill="white"/>
<path d="M98.2404 21.9428C97.6681 21.9428 97.129 21.9428 96.5634 21.9428C96.5634 21.3108 96.5634 20.717 96.5634 20.0786C97.1091 20.0786 97.6548 20.0786 98.2404 20.0786C98.2404 19.5104 98.2471 18.9869 98.2337 18.457C98.2271 18.2463 98.2803 18.1378 98.5133 18.0739C99.2054 17.8824 99.8842 17.6653 100.623 17.4419C100.623 18.3293 100.623 19.1848 100.623 20.0594C101.608 20.0594 102.546 20.0594 103.511 20.0594C103.511 20.6851 103.511 21.2852 103.511 21.9236C102.573 21.9236 101.628 21.9236 100.649 21.9236C100.643 22.0769 100.63 22.1854 100.63 22.3003C100.63 24.0113 100.623 25.7223 100.636 27.4396C100.636 27.7908 100.676 28.1419 100.749 28.4803C100.882 29.0868 101.288 29.3804 101.934 29.3868C102.167 29.3868 102.4 29.3741 102.633 29.3485C102.852 29.323 103.065 29.2655 103.318 29.2145C103.351 29.8146 103.398 30.3892 103.418 30.9701C103.418 31.0212 103.318 31.1042 103.252 31.1297C102.26 31.417 101.255 31.5255 100.244 31.2191C99.212 30.9063 98.6264 30.1849 98.4334 29.1953C98.3136 28.5824 98.2604 27.9504 98.2471 27.3311C98.2204 25.6712 98.2404 24.0113 98.2404 22.3514C98.2404 22.2237 98.2404 22.096 98.2404 21.9428Z" fill="white"/>
<path d="M118.918 31.1232C118.086 31.1232 117.307 31.1232 116.469 31.1232C116.469 27.4395 116.469 23.775 116.469 20.0913C117.134 20.0913 117.839 20.0913 118.585 20.0913C118.611 20.5701 118.638 21.0489 118.665 21.5469C118.924 21.2596 119.137 20.9659 119.403 20.7233C120.162 20.0338 121.06 19.7274 122.112 19.8678C122.338 19.8998 122.431 19.97 122.425 20.2062C122.405 20.8319 122.418 21.4575 122.418 22.1023C122.059 22.0832 121.733 22.0385 121.42 22.0576C120.115 22.147 119.157 23.0855 118.977 24.4389C118.938 24.7454 118.918 25.0518 118.918 25.3583C118.911 27.1586 118.918 28.9526 118.918 30.753C118.918 30.8679 118.918 30.9828 118.918 31.1232Z" fill="white"/>
<path d="M29.4614 5.7522C29.8142 8.38251 27.7777 11.3639 24.5767 11.6129C24.3238 11.6321 24.2573 11.5363 24.2173 11.3256C24.031 10.3425 24.2905 9.44229 24.8096 8.61234C25.7546 7.09927 27.1056 6.10333 28.949 5.79689C29.1087 5.77135 29.2751 5.77135 29.4614 5.7522Z" fill="white"/>
<path d="M46.8242 10.1255C47.117 10.0489 47.4032 9.97865 47.6228 9.92119C47.9023 10.3106 48.1086 10.7065 48.4081 11.0129C49.0137 11.6258 50.2781 11.5173 50.8172 10.8533C51.3696 10.1702 51.0102 9.24446 50.0785 9.02101C49.7058 8.93163 49.3132 8.93163 48.9205 8.88694C48.9205 8.65072 48.9205 8.40812 48.9205 8.12722C49.1601 8.10806 49.413 8.08891 49.6592 8.06976C50.2981 8.00591 50.7573 7.59094 50.7839 7.04828C50.8105 6.48646 50.3913 6.0268 49.7457 5.91188C48.9139 5.76504 48.2085 6.17364 47.9689 6.94613C47.9156 7.10574 47.8824 7.27811 47.8291 7.47602C47.5363 7.41218 47.2368 7.35472 46.944 7.29088C46.9906 5.8225 48.2284 4.88402 49.8256 5.08193C50.4179 5.15216 50.937 5.36284 51.323 5.8225C52.0018 6.62692 51.8886 7.65478 51.0501 8.30597C51.0102 8.3379 50.9636 8.36982 50.8438 8.4592C50.9104 8.47835 50.9503 8.48473 50.9902 8.50389C52.3212 9.01463 52.4743 10.7958 51.2897 11.6832C49.7324 12.8579 47.35 12.1238 46.8375 10.3042C46.8375 10.2532 46.8375 10.2021 46.8242 10.1255Z" fill="white"/>
<path d="M63.282 11.645C63.282 12.4558 63.282 13.2027 63.282 13.9816C62.9825 13.9816 62.703 13.9816 62.3969 13.9816C62.3969 11.6897 62.3969 9.39772 62.3969 7.09301C62.663 7.09301 62.9093 7.09301 63.1954 7.09301C63.2021 7.25261 63.2154 7.4186 63.2221 7.61013C63.2687 7.58459 63.3086 7.57821 63.3285 7.55267C64.034 6.64611 65.924 6.75464 66.5695 8.04426C67.042 8.98913 67.0487 9.95314 66.6494 10.9172C66.1835 12.0472 64.5264 12.7558 63.282 11.645ZM63.1954 9.79354C63.2354 9.97868 63.2753 10.3426 63.4084 10.6746C63.5947 11.1598 63.9807 11.4534 64.5398 11.4854C65.0788 11.5109 65.5047 11.2555 65.7243 10.8086C66.1303 9.99145 66.1503 9.12958 65.7177 8.31878C65.3051 7.53352 64.3534 7.44414 63.7212 8.08256C63.2886 8.51669 63.2221 9.05935 63.1954 9.79354Z" fill="white"/>
<path d="M53.8785 8.638C53.5924 8.5997 53.3195 8.56778 53.0067 8.52947C53.0999 8.01873 53.2929 7.5846 53.7588 7.342C54.7038 6.85041 55.6887 6.82488 56.6736 7.2207C57.1195 7.39946 57.3391 7.78251 57.3524 8.23579C57.379 9.07213 57.3724 9.91485 57.4057 10.7512C57.4256 11.1917 57.4988 11.6258 57.5587 12.0919C57.3591 12.0919 57.1062 12.1046 56.8533 12.0855C56.7734 12.0791 56.6803 11.977 56.6403 11.894C56.5871 11.7918 56.5738 11.6705 56.5339 11.5301C56.3808 11.6258 56.2411 11.7216 56.0946 11.811C55.4291 12.2132 54.7104 12.2962 53.9517 12.1302C53.3262 11.9897 52.9269 11.5428 52.847 10.9555C52.7738 10.3745 53.0467 9.79355 53.599 9.54457C53.9584 9.37858 54.371 9.30196 54.7703 9.21897C55.2428 9.1232 55.7286 9.05298 56.2078 8.98275C56.4407 8.95083 56.4873 8.82315 56.474 8.63162C56.4407 8.10811 56.2011 7.82082 55.6554 7.74421C55.3559 7.7059 55.0365 7.71229 54.7304 7.75059C54.2179 7.80805 54.0183 8.19749 53.8785 8.638ZM56.4207 9.65948C55.7552 9.78717 55.0831 9.8957 54.4176 10.0425C54.0183 10.1319 53.8186 10.3937 53.8186 10.7448C53.8186 11.1023 54.0449 11.3705 54.4309 11.4726C55.6355 11.8046 56.7069 10.8342 56.4207 9.65948Z" fill="white"/>
<path d="M95.9579 7.13141C96.9162 7.13141 97.8612 7.09949 98.7929 7.14418C99.3586 7.16971 99.7712 7.50169 99.9309 8.03159C100.104 8.5934 99.9642 9.08498 99.4384 9.47442C99.9043 9.73618 100.204 10.0809 100.217 10.6108C100.237 11.3961 99.7978 11.9643 98.926 12.0345C97.9477 12.1111 96.9628 12.0537 95.9579 12.0537C95.9579 10.4193 95.9579 8.77854 95.9579 7.13141ZM96.863 11.4025C97.4952 11.3705 98.1141 11.3642 98.7264 11.3067C99.0924 11.2684 99.2721 11.0322 99.292 10.7002C99.312 10.3938 99.1057 10.0235 98.7996 9.99155C98.1607 9.92132 97.5152 9.91494 96.863 9.88302C96.863 10.4193 96.863 10.8853 96.863 11.4025ZM96.863 7.76983C96.863 8.2678 96.863 8.70193 96.863 9.12967C97.422 9.12967 97.961 9.1616 98.5001 9.11691C98.8462 9.09137 99.0658 8.77854 99.0591 8.46571C99.0525 8.13373 98.8794 7.91028 98.4934 7.86559C97.961 7.81452 97.422 7.80175 96.863 7.76983Z" fill="white"/>
<path d="M92.1114 9.81912C90.787 9.81912 89.5226 9.81912 88.2715 9.81912C88.1384 10.4703 88.6109 11.2109 89.2697 11.4216C90.0683 11.6769 90.6672 11.3769 91.1331 10.4767C91.4126 10.5086 91.7121 10.5405 92.0382 10.5788C91.9783 10.9683 91.7786 11.2683 91.539 11.5429C90.6939 12.526 88.0984 12.5899 87.4529 10.7831C87.1601 9.95957 87.1801 9.12962 87.5128 8.31882C87.6925 7.86554 88.0186 7.52079 88.4578 7.27819C89.9552 6.44824 91.7387 7.25265 92.0249 8.88702C92.0714 9.16792 92.0781 9.46798 92.1114 9.81912ZM91.0865 9.07854C91.1131 8.29967 90.5341 7.71232 89.7489 7.69316C88.9303 7.67401 88.2981 8.26136 88.2848 9.07854C89.2165 9.07854 90.1548 9.07854 91.0865 9.07854Z" fill="white"/>
<path d="M81.7496 7.07379C81.7496 8.772 81.7496 10.4127 81.7496 12.0726C81.4502 12.0726 81.1706 12.0726 80.8579 12.0726C80.8579 10.866 80.8579 9.67856 80.8579 8.40171C80.7514 8.54216 80.6915 8.61239 80.6449 8.689C79.9927 9.69133 79.3339 10.6873 78.7083 11.7024C78.522 12.0088 78.3157 12.1556 77.9497 12.0982C77.8099 12.079 77.6635 12.0918 77.4905 12.0918C77.4905 10.4191 77.4905 8.76561 77.4905 7.09294C77.77 7.09294 78.0561 7.09294 78.3689 7.09294C78.3689 8.30595 78.3689 9.51257 78.3689 10.7128C78.3889 10.7192 78.4155 10.7256 78.4355 10.732C78.5952 10.483 78.7616 10.2404 78.9213 9.99139C79.4736 9.12951 80.0327 8.28041 80.5717 7.40577C80.7314 7.14402 80.9111 7.01633 81.2305 7.06102C81.3903 7.09933 81.5566 7.07379 81.7496 7.07379Z" fill="white"/>
<path d="M67.721 13.2155C67.8807 13.2347 67.9872 13.2538 68.1003 13.2666C68.6327 13.3113 68.879 13.1389 69.1052 12.6729C69.2916 12.2898 69.2849 11.9514 69.1185 11.5556C68.5462 10.183 68.0205 8.79762 67.4748 7.41862C67.4348 7.32285 67.4082 7.22071 67.355 7.08025C67.6545 7.08025 67.9207 7.0611 68.1735 7.09302C68.2667 7.10579 68.3732 7.23348 68.4131 7.33562C68.879 8.54863 69.3249 9.76802 69.7707 10.9555C70.17 9.89571 70.5893 8.79762 71.0019 7.70591C71.2681 6.99726 71.2681 6.99726 72.1333 7.11217C72.0401 7.35478 71.9536 7.59099 71.8604 7.82083C71.2149 9.46796 70.5693 11.1215 69.9171 12.7686C69.8173 13.0176 69.6975 13.2602 69.5578 13.4837C69.245 13.9816 68.7725 14.1795 68.1735 14.1157C67.9207 14.0902 67.7609 14.0072 67.7609 13.7326C67.7742 13.573 67.741 13.4134 67.721 13.2155Z" fill="white"/>
<path d="M73.4374 8.5233C73.1778 8.48499 72.9116 8.4403 72.6454 8.39561C72.8717 7.15707 74.3757 6.54418 75.5537 7.19538C76.146 7.52736 76.4721 8.22962 76.2524 8.79782C76.1593 9.03404 75.9596 9.23195 75.7999 9.46178C76.1393 9.67885 76.4122 9.99168 76.4654 10.4513C76.5586 11.2685 76.146 11.9453 75.3074 12.0921C74.7883 12.1879 74.2227 12.1815 73.7036 12.0793C72.9649 11.9389 72.5989 11.3962 72.4591 10.662C72.7386 10.6046 73.0048 10.5471 73.291 10.4896C73.4574 10.9621 73.7169 11.3579 74.256 11.4473C74.5022 11.4856 74.7883 11.4664 75.0279 11.3898C75.4139 11.2685 75.6069 10.9238 75.567 10.5663C75.5204 10.1896 75.2409 9.91507 74.8283 9.85761C74.5754 9.82569 74.3225 9.82569 74.043 9.81292C74.043 9.60862 74.043 9.39794 74.043 9.16172C74.5887 9.10427 75.2742 9.23195 75.3407 8.42754C75.3673 8.08917 75.1344 7.80826 74.795 7.71888C74.2493 7.58482 73.9165 7.77634 73.4374 8.5233Z" fill="white"/>
<path d="M86.8472 7.10547C86.8472 7.3353 86.8472 7.54598 86.8472 7.78858C86.3015 7.78858 85.7624 7.78858 85.1834 7.78858C85.1834 9.23142 85.1834 10.6487 85.1834 12.0852C84.8706 12.0852 84.5978 12.0852 84.285 12.0852C84.285 10.6679 84.285 9.26334 84.285 7.8205C83.7127 7.8205 83.1736 7.8205 82.6146 7.8205C82.6146 7.57152 82.6146 7.35445 82.6146 7.11185C84.0122 7.10547 85.4097 7.10547 86.8472 7.10547Z" fill="white"/>
<path d="M61.7314 7.80142C61.0326 7.80142 60.3604 7.80142 59.655 7.80142C59.655 9.2315 59.655 10.636 59.655 12.0725C59.3422 12.0725 59.0627 12.0725 58.7566 12.0725C58.7566 10.4126 58.7566 8.76545 58.7566 7.09277C59.7548 7.09277 60.7331 7.09277 61.7314 7.09277C61.7314 7.32261 61.7314 7.53967 61.7314 7.80142Z" fill="white"/>
<path d="M73.0781 25.7286C73.138 25.1477 73.138 24.5539 73.2645 23.9921C73.6571 22.2556 75.6403 21.2916 77.304 21.9938C77.883 22.2364 78.3289 22.6386 78.615 23.1749C79.4535 24.771 79.4602 26.399 78.6416 27.9886C78.0161 29.1953 76.6784 29.7124 75.3208 29.3868C74.0497 29.0803 73.158 27.9695 73.138 26.6607C73.1314 26.3543 73.138 26.0414 73.138 25.735C73.1114 25.735 73.0981 25.7286 73.0781 25.7286Z" fill="black"/>
<path d="M60.7198 25.716C60.7598 25.1989 60.7465 24.669 60.8396 24.1647C61.219 22.0962 63.7146 21.0683 65.4183 22.2749C66.1437 22.7857 66.5097 23.5199 66.6894 24.3434C66.9556 25.5628 66.8957 26.7567 66.3167 27.8931C65.6911 29.1188 64.3668 29.7126 63.0158 29.4061C61.6582 29.0997 60.7531 27.9824 60.7531 26.6162C60.7531 26.3162 60.7531 26.0225 60.7531 25.7224C60.7398 25.7224 60.7265 25.716 60.7198 25.716Z" fill="black"/>
<path d="M52.5609 24.5473C51.2099 24.5473 49.8789 24.5473 48.528 24.5473C49.2134 22.5427 49.8922 20.5572 50.5311 18.6738C51.1833 20.5636 51.8687 22.5491 52.5609 24.5473Z" fill="black"/>
<path d="M112.549 25.7033C112.516 26.7439 112.263 27.8356 111.378 28.7039C110.133 29.9169 108.223 29.8019 107.125 28.4613C105.934 27.0056 105.907 24.2987 107.065 22.8176C108.343 21.1768 110.805 21.3045 111.89 23.0666C112.363 23.8391 112.542 24.6818 112.549 25.7033Z" fill="black"/>
<path d="M124.807 24.3239C124.927 23.047 125.865 21.9106 126.997 21.6553C128.594 21.2977 129.885 22.1532 130.164 23.7684C130.198 23.9472 130.211 24.1259 130.238 24.3239C128.414 24.3239 126.611 24.3239 124.807 24.3239Z" fill="black"/>
<path d="M63.1956 9.79364C63.2288 9.05945 63.2954 8.51679 63.7213 8.08266C64.3535 7.44424 65.2985 7.53362 65.7178 8.31888C66.1437 9.12968 66.1237 9.99155 65.7244 10.8087C65.5048 11.262 65.0789 11.511 64.5398 11.4855C63.9875 11.4599 63.5949 11.1599 63.4085 10.6747C63.2754 10.3427 63.2355 9.97878 63.1956 9.79364Z" fill="black"/>
<path d="M56.4208 9.65942C56.7003 10.8341 55.6356 11.8045 54.431 11.4789C54.0384 11.3704 53.8121 11.1023 53.8187 10.7511C53.8187 10.4 54.0184 10.1382 54.4177 10.0489C55.0832 9.89564 55.7553 9.78072 56.4208 9.65942Z" fill="black"/>
<path d="M96.8629 11.4025C96.8629 10.8854 96.8629 10.4194 96.8629 9.87671C97.5151 9.90863 98.1606 9.91501 98.7995 9.98524C99.1057 10.0172 99.312 10.3874 99.292 10.6939C99.272 11.0259 99.0857 11.2621 98.7263 11.3004C98.1141 11.3642 97.4951 11.3706 96.8629 11.4025Z" fill="black"/>
<path d="M96.8629 7.77002C97.4219 7.80194 97.961 7.80833 98.5001 7.87217C98.8861 7.91686 99.0591 8.14031 99.0658 8.47229C99.0724 8.78511 98.8461 9.09794 98.5067 9.12348C97.9743 9.16179 97.4286 9.13625 96.8696 9.13625C96.8629 8.7085 96.8629 8.26799 96.8629 7.77002Z" fill="black"/>
<path d="M91.0864 9.07871C90.1546 9.07871 89.2229 9.07871 88.2845 9.07871C88.2979 8.26152 88.9301 7.67417 89.7487 7.69333C90.534 7.71248 91.113 8.29345 91.0864 9.07871Z" fill="black"/>
<rect x="1.05613" y="1.05613" width="141.522" height="37.3871" rx="4.57657" stroke="white" stroke-width="2.11226"/>
</svg>
