<svg width="17" height="16" viewBox="0 0 17 16" fill="none" xmlns="http://www.w3.org/2000/svg">
<path d="M15.5576 0H0.648232C0.289678 0 0 0.286 0 0.64V15.36C0 15.714 0.289678 16 0.648232 16H15.5576C15.9161 16 16.2058 15.714 16.2058 15.36V0.64C16.2058 0.286 15.9161 0 15.5576 0ZM14.9093 14.72H11.18V9.804H13.2867L13.6027 7.39H11.18V5.848C11.18 5.148 11.3765 4.672 12.3914 4.672H13.6858V2.512C13.4609 2.482 12.6932 2.416 11.7978 2.416C9.9301 2.416 8.65186 3.542 8.65186 5.608V7.388H6.54106V9.802H8.65389V14.72H1.29646V1.28H14.9093V14.72Z" fill="white"/>
</svg>
