<svg width="36" height="36" viewBox="0 0 36 36" fill="none" xmlns="http://www.w3.org/2000/svg">
<path fill-rule="evenodd" clip-rule="evenodd" d="M11.4036 2.096C13.1098 2.01745 13.6538 2 18 2C22.3462 2 22.8902 2.01891 24.5949 2.096C26.2996 2.17309 27.4633 2.44509 28.4815 2.83927C29.5476 3.24218 30.5149 3.872 31.3149 4.68655C32.1295 5.48509 32.7578 6.45091 33.1593 7.51855C33.5549 8.53673 33.8255 9.70036 33.904 11.4022C33.9825 13.1113 34 13.6553 34 18C34 22.3462 33.9811 22.8902 33.904 24.5964C33.8269 26.2982 33.5549 27.4618 33.1593 28.48C32.7578 29.5478 32.1284 30.5152 31.3149 31.3149C30.5149 32.1295 29.5476 32.7578 28.4815 33.1593C27.4633 33.5549 26.2996 33.8255 24.5978 33.904C22.8902 33.9825 22.3462 34 18 34C13.6538 34 13.1098 33.9811 11.4036 33.904C9.70182 33.8269 8.53818 33.5549 7.52 33.1593C6.45225 32.7578 5.48483 32.1284 4.68509 31.3149C3.8711 30.5159 3.24119 29.5489 2.83927 28.4815C2.44509 27.4633 2.17455 26.2996 2.096 24.5978C2.01745 22.8887 2 22.3447 2 18C2 13.6538 2.01891 13.1098 2.096 11.4051C2.17309 9.70036 2.44509 8.53673 2.83927 7.51855C3.24178 6.45103 3.87217 5.48409 4.68655 4.68509C5.48515 3.87127 6.4516 3.24137 7.51855 2.83927C8.53673 2.44509 9.70036 2.17455 11.4022 2.096H11.4036ZM24.4655 4.976C22.7782 4.89891 22.272 4.88291 18 4.88291C13.728 4.88291 13.2218 4.89891 11.5345 4.976C9.97382 5.04727 9.12727 5.30764 8.56291 5.52727C7.81673 5.81818 7.28291 6.16291 6.72291 6.72291C6.19207 7.23935 5.78354 7.86805 5.52727 8.56291C5.30764 9.12727 5.04727 9.97382 4.976 11.5345C4.89891 13.2218 4.88291 13.728 4.88291 18C4.88291 22.272 4.89891 22.7782 4.976 24.4655C5.04727 26.0262 5.30764 26.8727 5.52727 27.4371C5.78327 28.1309 6.192 28.7607 6.72291 29.2771C7.23927 29.808 7.86909 30.2167 8.56291 30.4727C9.12727 30.6924 9.97382 30.9527 11.5345 31.024C13.2218 31.1011 13.7265 31.1171 18 31.1171C22.2735 31.1171 22.7782 31.1011 24.4655 31.024C26.0262 30.9527 26.8727 30.6924 27.4371 30.4727C28.1833 30.1818 28.7171 29.8371 29.2771 29.2771C29.808 28.7607 30.2167 28.1309 30.4727 27.4371C30.6924 26.8727 30.9527 26.0262 31.024 24.4655C31.1011 22.7782 31.1171 22.272 31.1171 18C31.1171 13.728 31.1011 13.2218 31.024 11.5345C30.9527 9.97382 30.6924 9.12727 30.4727 8.56291C30.1818 7.81673 29.8371 7.28291 29.2771 6.72291C28.7606 6.1921 28.1319 5.78358 27.4371 5.52727C26.8727 5.30764 26.0262 5.04727 24.4655 4.976V4.976ZM15.9564 22.9324C17.0977 23.4075 18.3686 23.4716 19.5519 23.1138C20.7352 22.756 21.7577 21.9984 22.4445 20.9705C23.1314 19.9426 23.4401 18.7082 23.3179 17.478C23.1957 16.2478 22.6502 15.0981 21.7745 14.2255C21.2163 13.6676 20.5414 13.2405 19.7983 12.9748C19.0552 12.7091 18.2624 12.6114 17.4771 12.6889C16.6917 12.7664 15.9333 13.017 15.2564 13.4227C14.5796 13.8285 14.0011 14.3793 13.5626 15.0354C13.1242 15.6916 12.8366 16.4368 12.7208 17.2174C12.6049 17.998 12.6635 18.7946 12.8924 19.5498C13.1214 20.3051 13.5149 21.0002 14.0447 21.5851C14.5745 22.1699 15.2274 22.6301 15.9564 22.9324ZM12.1847 12.1847C12.9484 11.4211 13.855 10.8153 14.8528 10.402C15.8506 9.98868 16.92 9.77596 18 9.77596C19.08 9.77596 20.1494 9.98868 21.1472 10.402C22.145 10.8153 23.0516 11.4211 23.8153 12.1847C24.5789 12.9484 25.1847 13.855 25.598 14.8528C26.0113 15.8506 26.224 16.92 26.224 18C26.224 19.08 26.0113 20.1494 25.598 21.1472C25.1847 22.145 24.5789 23.0516 23.8153 23.8153C22.273 25.3576 20.1812 26.224 18 26.224C15.8188 26.224 13.727 25.3576 12.1847 23.8153C10.6424 22.273 9.77596 20.1812 9.77596 18C9.77596 15.8188 10.6424 13.727 12.1847 12.1847V12.1847ZM28.048 11.0007C28.2372 10.8222 28.3887 10.6075 28.4935 10.3694C28.5983 10.1313 28.6543 9.87457 28.6581 9.61444C28.6619 9.35431 28.6134 9.09607 28.5156 8.855C28.4178 8.61392 28.2726 8.39492 28.0887 8.21097C27.9047 8.02701 27.6857 7.88183 27.4446 7.78403C27.2036 7.68622 26.9453 7.63778 26.6852 7.64158C26.4251 7.64537 26.1683 7.70131 25.9302 7.8061C25.6921 7.91089 25.4774 8.06239 25.2989 8.25164C24.9517 8.61968 24.7616 9.10854 24.769 9.61444C24.7764 10.1203 24.9806 10.6035 25.3384 10.9612C25.6962 11.319 26.1793 11.5232 26.6852 11.5306C27.1911 11.538 27.68 11.3479 28.048 11.0007V11.0007Z" fill="white"/>
</svg>
