<svg width="36" height="36" viewBox="0 0 36 36" fill="none" xmlns="http://www.w3.org/2000/svg">
<path fill-rule="evenodd" clip-rule="evenodd" d="M11.4036 2.096C13.1098 2.01745 13.6538 2 18 2C22.3462 2 22.8902 2.01891 24.5949 2.096C26.2996 2.17309 27.4633 2.44509 28.4815 2.83927C29.5476 3.24218 30.5149 3.872 31.3149 4.68655C32.1295 5.48509 32.7578 6.45091 33.1593 7.51855C33.5549 8.53673 33.8255 9.70036 33.904 11.4022C33.9825 13.1113 34 13.6553 34 18C34 22.3462 33.9811 22.8902 33.904 24.5964C33.8269 26.2982 33.5549 27.4618 33.1593 28.48C32.7578 29.5478 32.1284 30.5152 31.3149 31.3149C30.5149 32.1295 29.5476 32.7578 28.4815 33.1593C27.4633 33.5549 26.2996 33.8255 24.5978 33.904C22.8902 33.9825 22.3462 34 18 34C13.6538 34 13.1098 33.9811 11.4036 33.904C9.70182 33.8269 8.53818 33.5549 7.52 33.1593C6.45225 32.7578 5.48483 32.1284 4.68509 31.3149C3.8711 30.5159 3.24119 29.5489 2.83927 28.4815C2.44509 27.4633 2.17455 26.2996 2.096 24.5978C2.01745 22.8887 2 22.3447 2 18C2 13.6538 2.01891 13.1098 2.096 11.4051C2.17309 9.70036 2.44509 8.53673 2.83927 7.51855C3.24178 6.45103 3.87217 5.48409 4.68655 4.68509C5.48515 3.87127 6.4516 3.24137 7.51855 2.83927C8.53673 2.44509 9.70036 2.17455 11.4022 2.096H11.4036ZM24.4655 4.976C22.7782 4.89891 22.272 4.88291 18 4.88291C13.728 4.88291 13.2218 4.89891 11.5345 4.976C9.97382 5.04727 9.12727 5.30764 8.56291 5.52727C7.81673 5.81818 7.28291 6.16291 6.72291 6.72291C6.19207 7.23935 5.78353 7.86805 5.52727 8.56291C5.30764 9.12727 5.04727 9.97382 4.976 11.5345C4.89891 13.2218 4.88291 13.728 4.88291 18C4.88291 22.272 4.89891 22.7782 4.976 24.4655C5.04727 26.0262 5.30764 26.8727 5.52727 27.4371C5.78327 28.1309 6.192 28.7607 6.72291 29.2771C7.23927 29.808 7.86909 30.2167 8.56291 30.4727C9.12727 30.6924 9.97382 30.9527 11.5345 31.024C13.2218 31.1011 13.7265 31.1171 18 31.1171C22.2735 31.1171 22.7782 31.1011 24.4655 31.024C26.0262 30.9527 26.8727 30.6924 27.4371 30.4727C28.1833 30.1818 28.7171 29.8371 29.2771 29.2771C29.808 28.7607 30.2167 28.1309 30.4727 27.4371C30.6924 26.8727 30.9527 26.0262 31.024 24.4655C31.1011 22.7782 31.1171 22.272 31.1171 18C31.1171 13.728 31.1011 13.2218 31.024 11.5345C30.9527 9.97382 30.6924 9.12727 30.4727 8.56291C30.1818 7.81673 29.8371 7.28291 29.2771 6.72291C28.7606 6.1921 28.1319 5.78358 27.4371 5.52727C26.8727 5.30764 26.0262 5.04727 24.4655 4.976Z" fill="white"/>
<path fill-rule="evenodd" clip-rule="evenodd" d="M26.6101 14.6094C26.7276 14.2584 26.6101 14 26.047 14H24.1876C23.7145 14 23.4963 14.2231 23.378 14.4693C23.378 14.4693 22.4324 16.5239 21.093 17.8584C20.6595 18.2454 20.4626 18.3682 20.226 18.3682C20.1077 18.3682 19.9299 18.2454 19.9299 17.8938V14.6094C19.9299 14.1877 19.7996 14 19.4058 14H16.4818C16.1865 14 16.0087 14.1954 16.0087 14.3812C16.0087 14.7804 16.6787 14.873 16.7474 15.9967V18.4383C16.7474 18.9738 16.6391 19.0709 16.4025 19.0709C15.7721 19.0709 14.2386 17.0066 13.3284 14.6448C13.152 14.1851 12.9735 14 12.4982 14H10.6375C10.1062 14 10 14.2231 10 14.4693C10 14.9077 10.6304 17.0857 12.936 19.9664C14.473 21.9335 16.6369 23 18.6082 23C19.7904 23 19.9363 22.7634 19.9363 22.3552V20.8683C19.9363 20.3945 20.0482 20.3 20.4229 20.3C20.6992 20.3 21.1716 20.4234 22.2752 21.3716C23.536 22.496 23.7435 23 24.4532 23H26.3126C26.8438 23 27.1101 22.7634 26.9571 22.2954C26.7886 21.83 26.1865 21.1544 25.3882 20.3527C24.9547 19.8963 24.3045 19.4045 24.1069 19.1583C23.8313 18.8426 23.91 18.7019 24.1069 18.4209C24.1069 18.4209 26.3735 15.5756 26.6094 14.6094H26.6101Z" fill="white"/>
</svg>
