<svg width="21" height="16" viewBox="0 0 21 16" fill="none" xmlns="http://www.w3.org/2000/svg">
<path d="M20.8746 8.06894C20.8746 8.12312 20.8746 8.18467 20.8723 8.25608C20.8701 8.45553 20.8656 8.67959 20.861 8.91844C20.843 9.60542 20.8113 10.2899 20.7616 10.9351C20.6937 11.8239 20.5943 12.5651 20.4586 13.1216C20.3155 13.7023 20.0349 14.232 19.6449 14.6576C19.2549 15.0832 18.7691 15.3899 18.2362 15.5469C17.5964 15.7341 16.3439 15.8498 14.5804 15.9212C13.7416 15.9557 12.8441 15.9778 11.9465 15.9902C11.6322 15.9951 11.3406 15.9975 11.0783 16H10.4136C10.1514 15.9975 9.85973 15.9951 9.54548 15.9902C8.64792 15.9778 7.75036 15.9557 6.91158 15.9212C5.14812 15.8473 3.89335 15.7316 3.25578 15.5469C2.72268 15.3902 2.23675 15.0837 1.8467 14.658C1.45664 14.2323 1.17616 13.7025 1.03337 13.1216C0.895455 12.5651 0.798239 11.8239 0.730413 10.9351C0.680674 10.2899 0.649023 9.60542 0.630936 8.91844C0.624153 8.67959 0.621892 8.45553 0.619631 8.25608C0.619631 8.18467 0.617371 8.12312 0.617371 8.06894V7.93106C0.617371 7.87689 0.617371 7.81533 0.619631 7.74392C0.621892 7.54448 0.626414 7.32041 0.630936 7.08156C0.649023 6.39458 0.680674 5.71007 0.730413 5.06494C0.798239 4.17605 0.897716 3.4349 1.03337 2.87842C1.32276 1.69899 2.17284 0.768237 3.25578 0.453064C3.89335 0.265929 5.14812 0.150203 6.91158 0.0787954C7.75036 0.0443239 8.64792 0.0221615 9.54548 0.0098505C9.85973 0.00492573 10.1514 0.00246334 10.4136 9.53674e-07H11.0783C11.3406 0.00246334 11.6322 0.00492573 11.9465 0.0098505C12.8441 0.0221615 13.7416 0.0443239 14.5804 0.0787954C16.3439 0.152665 17.5986 0.268392 18.2362 0.453064C19.3191 0.768237 20.1692 1.69652 20.4586 2.87842C20.5965 3.4349 20.6937 4.17605 20.7616 5.06494C20.8113 5.71007 20.843 6.39458 20.861 7.08156C20.8678 7.32041 20.8701 7.54448 20.8723 7.74392C20.8723 7.81533 20.8746 7.87689 20.8746 7.93106V8.06894ZM19.2468 7.94091C19.2468 7.8892 19.2468 7.83257 19.2445 7.76608C19.2423 7.57402 19.2377 7.36227 19.2332 7.13327C19.2174 6.4783 19.1857 5.82333 19.1383 5.21515C19.0772 4.42229 18.9913 3.77224 18.8851 3.33641C18.7449 2.76762 18.3334 2.31702 17.8134 2.16682C17.3386 2.02893 16.1426 1.91813 14.5171 1.85165C13.6941 1.81718 12.8079 1.79501 11.9239 1.7827C11.6142 1.77778 11.327 1.77532 11.0693 1.77532H10.4227L9.56808 1.7827C8.68409 1.79501 7.8001 1.81718 6.97489 1.85165C5.34933 1.92059 4.15108 2.02893 3.67856 2.16682C3.15857 2.31948 2.74709 2.76762 2.60692 3.33641C2.50066 3.77224 2.41475 4.42229 2.35371 5.21515C2.30623 5.82333 2.27684 6.4783 2.25875 7.13327C2.25197 7.36227 2.24971 7.57649 2.24745 7.76608C2.24745 7.83257 2.24518 7.89166 2.24518 7.94091V8.0591C2.24518 8.1108 2.24518 8.16744 2.24745 8.23392C2.24971 8.42598 2.25423 8.63774 2.25875 8.86673C2.27458 9.5217 2.30623 10.1767 2.35371 10.7849C2.41475 11.5777 2.50066 12.2278 2.60692 12.6636C2.74709 13.2324 3.15857 13.683 3.67856 13.8332C4.15334 13.9711 5.34933 14.0819 6.97489 14.1484C7.79784 14.1828 8.68409 14.205 9.56808 14.2173C9.87782 14.2222 10.1649 14.2247 10.4227 14.2247H11.0693L11.9239 14.2173C12.8079 14.205 13.6919 14.1828 14.5171 14.1484C16.1426 14.0794 17.3409 13.9711 17.8134 13.8332C18.3334 13.6805 18.7449 13.2324 18.8851 12.6636C18.9913 12.2278 19.0772 11.5777 19.1383 10.7849C19.1857 10.1767 19.2151 9.5217 19.2332 8.86673C19.24 8.63774 19.2423 8.42352 19.2445 8.23392C19.2445 8.16744 19.2468 8.10834 19.2468 8.0591V7.94091ZM8.73383 4.70052L13.979 8.02462L8.73383 11.2995V4.70052Z" fill="white"/>
</svg>
